<?xml version="1.0" encoding="UTF-8"?>
<svg version="1.1" xmlns="http://www.w3.org/2000/svg" width="505" height="508">
<path d="M0 0 C166.65 0 333.3 0 505 0 C505 167.64 505 335.28 505 508 C338.35 508 171.7 508 0 508 C0 340.36 0 172.72 0 0 Z " fill="#F1F1F1" transform="translate(0,0)"/>
<path d="M0 0 C1.83884766 0.36738281 1.83884766 0.36738281 3.71484375 0.7421875 C32.45832421 6.91655422 58.8623855 25.00352659 74.94921875 49.6484375 C91.47706107 76.65965409 98.95204289 107.45308788 92.03515625 138.921875 C84.61985497 169.23109057 67.2974985 195.73073043 40.453125 212.21875 C12.52444745 228.82808089 -19.14593034 234.87332435 -51 227 C-72.08031832 221.43544584 -89.13233369 210.90848095 -105 196 C-105.59167969 195.484375 -106.18335938 194.96875 -106.79296875 194.4375 C-124.20436835 178.55631842 -136.83410327 150.72276133 -138.21899414 127.29541016 C-138.36625532 123.00942004 -138.38652777 118.72565704 -138.375 114.4375 C-138.37445618 113.67988373 -138.37391235 112.92226746 -138.37335205 112.14169312 C-138.33632372 100.94506682 -137.79708955 90.63890416 -134 80 C-133.67056396 79.05036377 -133.67056396 79.05036377 -133.33447266 78.08154297 C-122.07696669 46.09365447 -99.57149027 22.03279898 -69.140625 7.375 C-47.46558394 -2.11457021 -23.21633386 -4.95661606 0 0 Z " fill="#F1F1F1" transform="translate(272,101)"/>
<path d="M0 0 C2.66001603 0.04044469 5.2836613 0.15236608 7.9375 0.3125 C8.794646 0.35882568 9.65179199 0.40515137 10.53491211 0.45288086 C15.13125151 0.71554053 19.70849063 1.0526679 24.2890625 1.515625 C56.29145603 4.63889798 89.01785917 4.13662992 121.00268555 1.06762695 C128.86198347 0.32122169 136.63595067 -0.14030615 144.53515625 -0.15625 C145.36526718 -0.15894897 146.19537811 -0.16164795 147.05064392 -0.16442871 C152.87089745 -0.12910255 152.87089745 -0.12910255 154 1 C154.59246685 7.09617209 153.09153416 10.92358816 150.25 16.125 C149.84950439 16.86492187 149.44900879 17.60484375 149.03637695 18.3671875 C138.48623455 37.00516988 120.54023656 49.8984919 100.16064453 55.9050293 C83.29556245 60.31648816 64.43750712 59.70357187 48 54 C46.93910156 53.63777344 45.87820312 53.27554688 44.78515625 52.90234375 C23.56733254 44.84667066 9.31081393 29.06951529 -0.00390625 8.875 C-0.99499388 6.01444903 -1.29445312 3.99806816 -1 1 C-0.67 0.67 -0.34 0.34 0 0 Z " fill="#2D934D" transform="translate(173,243)"/>
<path d="M0 0 C1.83884766 0.36738281 1.83884766 0.36738281 3.71484375 0.7421875 C32.45832421 6.91655422 58.8623855 25.00352659 74.94921875 49.6484375 C91.47706107 76.65965409 98.95204289 107.45308788 92.03515625 138.921875 C84.61985497 169.23109057 67.2974985 195.73073043 40.453125 212.21875 C12.52444745 228.82808089 -19.14593034 234.87332435 -51 227 C-72.08031832 221.43544584 -89.13233369 210.90848095 -105 196 C-105.59167969 195.484375 -106.18335938 194.96875 -106.79296875 194.4375 C-124.20436835 178.55631842 -136.83410327 150.72276133 -138.21899414 127.29541016 C-138.36625532 123.00942004 -138.38652777 118.72565704 -138.375 114.4375 C-138.37445618 113.67988373 -138.37391235 112.92226746 -138.37335205 112.14169312 C-138.33632372 100.94506682 -137.79708955 90.63890416 -134 80 C-133.67056396 79.05036377 -133.67056396 79.05036377 -133.33447266 78.08154297 C-122.07696669 46.09365447 -99.57149027 22.03279898 -69.140625 7.375 C-47.46558394 -2.11457021 -23.21633386 -4.95661606 0 0 Z M-101.078125 40.80078125 C-123.65871239 66.63994934 -130.70428287 95.03972585 -129 129 C-128.36902848 134.91882062 -126.92504027 140.38031723 -125 146 C-124.78569336 146.63357422 -124.57138672 147.26714844 -124.35058594 147.91992188 C-119.41598213 162.18502109 -112.11577102 174.76800598 -102 186 C-101.31421875 186.76828125 -100.6284375 187.5365625 -99.921875 188.328125 C-81.77028374 207.55536612 -54.82026799 220.13724891 -28.421875 221.21484375 C-0.69900648 221.94410966 25.53174739 213.76466517 47 196 C47.79921875 195.35289062 48.5984375 194.70578125 49.421875 194.0390625 C68.87230853 177.60679969 82.27712266 151.78785845 84.8125 126.39916992 C87.08923837 97.26699815 80.27107816 69.02680323 61.04296875 46.42578125 C58.14747169 43.16204642 55.11021068 40.05828553 52 37 C51.16597656 36.16726562 50.33195313 35.33453125 49.47265625 34.4765625 C28.81919327 14.86079377 0.53938103 6.36548359 -27.4609375 6.78515625 C-55.27518224 7.74570825 -82.01056713 20.71465725 -101.078125 40.80078125 Z " fill="#379847" transform="translate(272,101)"/>
<path d="M0 0 C0.5672877 24.55095087 -4.37425012 47.53490634 -21.65966797 65.80224609 C-38.27513118 82.57611344 -59.90282158 90.96999992 -83.375 91.125 C-84.09026855 91.12983398 -84.80553711 91.13466797 -85.54248047 91.13964844 C-90.7555817 91.12220915 -90.7555817 91.12220915 -93 90 C-89.19441996 76.6907552 -79.28558142 64.9798305 -70 55 C-69.43120117 54.38737305 -68.86240234 53.77474609 -68.27636719 53.14355469 C-57.64988159 41.83112059 -46.30523585 32.98314151 -33 25 C-62.60126762 35.90573018 -83.93700215 56.44072596 -97.37109375 84.76171875 C-99 88 -99 88 -101 90 C-101.64836042 88.25093469 -102.29358784 86.50070781 -102.9375 84.75 C-103.29714844 83.77546875 -103.65679687 82.8009375 -104.02734375 81.796875 C-108.51922004 68.88047571 -105.89058092 55.81932204 -100.4921875 43.58203125 C-96.67623834 36.01225304 -92.02226508 29.9380376 -86 24 C-85.38640625 23.37609375 -84.7728125 22.7521875 -84.140625 22.109375 C-61.23485927 0.37826393 -29.6115171 -0.74343322 0 0 Z " fill="#38994C" transform="translate(304,139)"/>
<path d="M0 0 C2.83513847 4.8681987 2.34216603 9.69080785 2.3125 15.1875 C2.30686035 16.26596191 2.3012207 17.34442383 2.29541016 18.45556641 C1.8198003 50.11423049 -11.13563317 78.09940367 -33.39697266 100.46289062 C-56.57461635 122.68744814 -87.84812739 132.84929297 -119.46875 132.24609375 C-149.5923864 131.19926614 -175.25290786 118.43250108 -197 98 C-197.59167969 97.484375 -198.18335938 96.96875 -198.79296875 96.4375 C-210.72502769 85.55410182 -220.36786591 68.34394418 -225 53 C-224 50 -224 50 -223 49 C-221.33382885 48.95936168 -219.66611905 48.957279 -218 49 C-218.33 48.278125 -218.66 47.55625 -219 46.8125 C-220.00603529 43.98302573 -220.16977402 41.97104534 -220 39 C-217.13113484 41.86886516 -216.53110283 45.39506147 -215.375 49.1875 C-206.48367163 76.85278538 -187.52556309 97.68054102 -161.96508789 111.22924805 C-136.32347211 124.03853975 -107.56276687 125.21111819 -80.4375 116.8125 C-67.29384871 112.13827157 -55.78536485 105.8773093 -45 97 C-44.27425781 96.42636719 -43.54851562 95.85273438 -42.80078125 95.26171875 C-23.03883167 78.99402351 -13.69245733 55.13392046 -8 31 C-7.01 31 -6.02 31 -5 31 C-4.8453125 29.824375 -4.8453125 29.824375 -4.6875 28.625 C-4 26 -4 26 -1 24 C-0.01956036 21.05868109 0.11621202 19.17498335 0.09765625 16.11328125 C0.09443359 15.17548828 0.09121094 14.23769531 0.08789062 13.27148438 C0.07951172 12.29501953 0.07113281 11.31855469 0.0625 10.3125 C0.05573242 8.83040039 0.05573242 8.83040039 0.04882812 7.31835938 C0.03704303 4.87884526 0.02059011 2.43945311 0 0 Z " fill="#248E47" transform="translate(364,199)"/>
<path d="M0 0 C9 0 9 0 11.34765625 1.765625 C11.91355469 2.58546875 12.47945312 3.4053125 13.0625 4.25 C13.71863281 5.17167969 14.37476562 6.09335937 15.05078125 7.04296875 C15.69402344 8.01878906 16.33726563 8.99460937 17 10 C17.61230469 10.90363281 18.22460938 11.80726563 18.85546875 12.73828125 C20.1524909 14.67178024 21.43708509 16.61365807 22.7109375 18.5625 C26.90059979 24.9213323 31.3834083 31.08599738 35.79833984 37.28930664 C36.88964383 38.84289604 37.94686046 40.42029069 39 42 C39.33 28.14 39.66 14.28 40 0 C43.3 0 46.6 0 50 0 C50.02312792 7.80575195 50.04091738 15.61149595 50.05181217 23.41727352 C50.05704002 27.0414596 50.06413587 30.6656223 50.07543945 34.28979492 C50.08627184 37.78459975 50.09227758 41.27938204 50.09487724 44.77420235 C50.09763551 46.76239389 50.10544688 48.75057631 50.11329651 50.73875427 C50.11337204 51.93992386 50.11344757 53.14109344 50.11352539 54.37866211 C50.115746 55.44233505 50.11796661 56.506008 50.12025452 57.60191345 C50 60 50 60 49 61 C45.87554599 61.64261233 43.1177246 61.69482925 40 61 C37.22702288 58.76701568 35.51095981 55.99287035 33.625 53 C32.80708984 51.78606567 32.80708984 51.78606567 31.97265625 50.54760742 C30.84586665 48.87131181 29.73164563 47.18650216 28.62988281 45.49365234 C26.61302438 42.40794354 24.51848581 39.38088948 22.41552734 36.35351562 C20.71793487 33.90579692 19.04261646 31.44335574 17.37109375 28.9777832 C15.28042418 25.96202213 13.13289187 22.98604862 11 20 C10.67 33.53 10.34 47.06 10 61 C6.7 61 3.4 61 0 61 C0 40.87 0 20.74 0 0 Z " fill="#228B45" transform="translate(91,356)"/>
<path d="M0 0 C2.97 0 5.94 0 9 0 C10.65079442 1.65079442 10.22549447 3.63736179 10.31640625 5.91015625 C10.37924805 7.39418945 10.37924805 7.39418945 10.44335938 8.90820312 C10.48267578 9.94912109 10.52199219 10.99003906 10.5625 12.0625 C10.60568359 13.10728516 10.64886719 14.15207031 10.69335938 15.22851562 C10.79981225 17.81886884 10.9018276 20.40932186 11 23 C11.78375 22.360625 12.5675 21.72125 13.375 21.0625 C17.13826022 18.10565268 19.06826887 17.82019824 23.8125 17.75 C24.85019531 17.72421875 25.88789063 17.6984375 26.95703125 17.671875 C30.59225241 18.0638629 32.19311208 18.64314204 35 21 C40.50673823 28.49216086 39.44984552 37.12949859 39.25 46 C39.22990643 47.55336242 39.2116607 49.1067499 39.1953125 50.66015625 C39.15153679 54.44072979 39.08266974 58.22008511 39 62 C37.52093108 62.02689216 36.04172517 62.04634621 34.5625 62.0625 C33.73878906 62.07410156 32.91507812 62.08570313 32.06640625 62.09765625 C30 62 30 62 29 61 C28.90250052 58.91320882 28.86794839 56.82342504 28.859375 54.734375 C28.83037109 52.81044922 28.83037109 52.81044922 28.80078125 50.84765625 C28.77187657 48.80228279 28.75000192 46.75799289 28.74951172 44.71240234 C28.74616366 42.74039292 28.70937396 40.7685307 28.671875 38.796875 C28.6625293 37.61448242 28.65318359 36.43208984 28.64355469 35.21386719 C27.81750107 31.08861307 26.25550846 29.58352735 23 27 C19.12559532 26.44651362 16.21955988 26.70031437 13 29 C10.77273129 32.43230772 10.70929664 35.4472425 10.62109375 39.48046875 C10.58693359 40.72634766 10.55277344 41.97222656 10.51757812 43.25585938 C10.49115234 44.55330078 10.46472656 45.85074219 10.4375 47.1875 C10.37786663 49.76442276 10.31428899 52.34125836 10.24609375 54.91796875 C10.22216553 56.06031982 10.1982373 57.2026709 10.17358398 58.37963867 C10 61 10 61 9 62 C6.03 62 3.06 62 0 62 C0 41.54 0 21.08 0 0 Z " fill="#208A44" transform="translate(318,355)"/>
<path d="M0 0 C0.8146875 0.00257813 1.629375 0.00515625 2.46875 0.0078125 C3.2834375 0.00523437 4.098125 0.00265625 4.9375 0 C6.96875 0.1328125 6.96875 0.1328125 7.96875 1.1328125 C8.09085626 3.3036954 8.14854538 5.47825253 8.1796875 7.65234375 C8.20776569 8.99805884 8.23643022 10.3437618 8.265625 11.68945312 C8.30683294 13.8158319 8.3437087 15.94198659 8.37011719 18.06860352 C8.39778687 20.11782996 8.44366621 22.16601897 8.4921875 24.21484375 C8.51200684 25.44436768 8.53182617 26.6738916 8.55224609 27.94067383 C8.9953583 31.33674191 9.49313861 32.79529302 11.96875 35.1328125 C16.10233237 35.58374876 19.54541681 35.66861487 22.96875 33.1328125 C25.191085 29.69574147 25.25939486 26.6882448 25.34765625 22.65234375 C25.38181641 21.40646484 25.41597656 20.16058594 25.45117188 18.87695312 C25.47759766 17.57951172 25.50402344 16.28207031 25.53125 14.9453125 C25.59088337 12.36838974 25.65446101 9.79155414 25.72265625 7.21484375 C25.74658447 6.07249268 25.7705127 4.9301416 25.79516602 3.75317383 C25.96875 1.1328125 25.96875 1.1328125 26.96875 0.1328125 C29.93875 0.1328125 32.90875 0.1328125 35.96875 0.1328125 C35.96875 14.6528125 35.96875 29.1728125 35.96875 44.1328125 C32.99875 44.1328125 30.02875 44.1328125 26.96875 44.1328125 C26.30875 42.8128125 25.64875 41.4928125 24.96875 40.1328125 C23.5765625 41.091875 23.5765625 41.091875 22.15625 42.0703125 C17.52103754 45.06956762 13.42528395 45.86794326 7.96875 45.1328125 C2.23336561 42.26512031 -1.01012258 38.19619475 -3.03125 32.1328125 C-3.12694956 29.78799281 -3.16198912 27.44052086 -3.1640625 25.09375 C-3.16501923 24.41228912 -3.16597595 23.73082825 -3.16696167 23.02871704 C-3.16764115 21.59140938 -3.16580304 20.15409862 -3.16162109 18.71679688 C-3.156253 16.50904522 -3.1615823 14.30149547 -3.16796875 12.09375 C-3.16730825 10.69791622 -3.16602767 9.30208256 -3.1640625 7.90625 C-3.16293457 6.63185059 -3.16180664 5.35745117 -3.16064453 4.04443359 C-2.98959398 0.19547345 -2.98959398 0.19547345 0 0 Z " fill="#258D4A" transform="translate(153.03125,372.8671875)"/>
<path d="M0 0 C1.43489809 -0.13536774 2.87347107 -0.23217143 4.3125 -0.3125 C5.11300781 -0.37050781 5.91351563 -0.42851562 6.73828125 -0.48828125 C9 0 9 0 10.5390625 1.8515625 C13.0707327 7.30751486 15.06574668 12.95694458 17.12695312 18.60351562 C17.63838867 19.98120117 17.63838867 19.98120117 18.16015625 21.38671875 C18.61853882 22.64295044 18.61853882 22.64295044 19.08618164 23.92456055 C19.92270935 26.16418344 19.92270935 26.16418344 22 28 C25.3 18.76 28.6 9.52 32 0 C35.3 0 38.6 0 42 0 C41.35300395 5.89622091 39.22881624 11.09710911 37.10546875 16.5859375 C36.71684158 17.60168854 36.32821442 18.61743958 35.92781067 19.66397095 C35.10588639 21.80827782 34.28117252 23.95151724 33.45385742 26.09375 C32.19560517 29.35399875 30.9477296 32.61807708 29.70117188 35.8828125 C28.89905519 37.97159147 28.09634021 40.06014081 27.29296875 42.1484375 C26.73805 43.60037003 26.73805 43.60037003 26.17192078 45.08163452 C24.05036249 50.55732474 21.71499295 55.79202113 19 61 C15.7 61 12.4 61 9 61 C9.43828476 55.59448795 11.60111479 51.43153059 14.0390625 46.68359375 C16.00009115 41.20706253 12.95655952 36.10894421 10.83984375 30.99609375 C10.20495278 29.43559787 9.57019103 27.8750494 8.93554688 26.31445312 C7.93491911 23.8688844 6.93205407 21.4242659 5.92651367 18.98071289 C4.95417936 16.61321789 3.99034184 14.24239852 3.02734375 11.87109375 C2.72424789 11.14184189 2.42115204 10.41259003 2.10887146 9.66123962 C0.69478499 6.16874956 0 3.82493859 0 0 Z " fill="#228C48" transform="translate(362,373)"/>
<path d="M0 0 C3.63 0 7.26 0 11 0 C11 3.96 11 7.92 11 12 C14.63 12 18.26 12 22 12 C22 14.97 22 17.94 22 21 C18.37 21 14.74 21 11 21 C11.11365321 24.77149214 11.24041037 28.54174717 11.375 32.3125 C11.4059375 33.38435547 11.436875 34.45621094 11.46875 35.56054688 C11.50742188 36.58857422 11.54609375 37.61660156 11.5859375 38.67578125 C11.63306885 40.0975769 11.63306885 40.0975769 11.68115234 41.5480957 C11.8489051 44.2530269 11.8489051 44.2530269 14 47 C15.97747122 47.36297936 15.97747122 47.36297936 18.125 47.1875 C19.40375 47.125625 20.6825 47.06375 22 47 C22.09765625 53.15234375 22.09765625 53.15234375 22 55 C20.14576932 56.85423068 17.30362802 56.30181432 14.8125 56.375 C7.4548534 56.31852684 7.4548534 56.31852684 4.3125 53.8125 C0.63358174 49.33813996 -0.25420761 45.7852423 -0.1953125 40.04296875 C-0.18564453 38.37524414 -0.18564453 38.37524414 -0.17578125 36.67382812 C-0.15902344 35.52333984 -0.14226562 34.37285156 -0.125 33.1875 C-0.11597656 32.01767578 -0.10695312 30.84785156 -0.09765625 29.64257812 C-0.07413732 26.76150947 -0.04126852 23.88086011 0 21 C-0.969375 21.020625 -1.93875 21.04125 -2.9375 21.0625 C-6 21 -6 21 -7 20 C-7.125 16.5 -7.125 16.5 -7 13 C-6.67 12.67 -6.34 12.34 -6 12 C-4.02 12 -2.04 12 0 12 C0 8.04 0 4.08 0 0 Z " fill="#2A904E" transform="translate(202,361)"/>
<path d="M0 0 C3.3 0 6.6 0 10 0 C10 3.96 10 7.92 10 12 C12.6915625 11.9690625 12.6915625 11.9690625 15.4375 11.9375 C17.29166122 11.9161878 19.14712498 11.92773498 21 12 C22 13 22 13 22.09765625 14.84765625 C22.06510417 16.8984375 22.03255208 18.94921875 22 21 C18.04 21 14.08 21 10 21 C10.14082687 24.58359451 10.28745307 28.16678982 10.4375 31.75 C10.47681641 32.76578125 10.51613281 33.7815625 10.55664062 34.828125 C10.59853516 35.8078125 10.64042969 36.7875 10.68359375 37.796875 C10.72025146 38.69760742 10.75690918 39.59833984 10.79467773 40.52636719 C10.95650925 43.28349101 10.95650925 43.28349101 12 47 C15.3 47 18.6 47 22 47 C22 49.64 22 52.28 22 55 C17.76488453 57.11755774 13.6660527 57.74107896 9 57 C4.51952606 54.71749441 2.19748824 52.48357527 0 48 C-0.34057617 44.95385742 -0.34057617 44.95385742 -0.29296875 41.60546875 C-0.28330078 40.40341797 -0.27363281 39.20136719 -0.26367188 37.96289062 C-0.23853516 36.71701172 -0.21339844 35.47113281 -0.1875 34.1875 C-0.17396484 32.92228516 -0.16042969 31.65707031 -0.14648438 30.35351562 C-0.11118318 27.23524357 -0.06186819 24.11783958 0 21 C-2.31 21 -4.62 21 -7 21 C-7 18.03 -7 15.06 -7 12 C-4.69 12 -2.38 12 0 12 C0 8.04 0 4.08 0 0 Z " fill="#228B47" transform="translate(288,361)"/>
<path d="M0 0 C2.05078125 0.03255208 4.1015625 0.06510417 6.15234375 0.09765625 C6.81234375 1.74765625 7.47234375 3.39765625 8.15234375 5.09765625 C8.97734375 4.27265625 9.80234375 3.44765625 10.65234375 2.59765625 C13.28542636 0.37304707 15.01665832 -0.26491786 18.46484375 -0.27734375 C22.15234375 0.09765625 22.15234375 0.09765625 23.15234375 1.09765625 C23.28515625 2.91015625 23.28515625 2.91015625 23.27734375 5.09765625 C23.28121094 6.18046875 23.28121094 6.18046875 23.28515625 7.28515625 C23.15234375 9.09765625 23.15234375 9.09765625 22.15234375 10.09765625 C19.63627926 10.34114636 17.12148351 10.48128991 14.59765625 10.62109375 C11.64504889 11.19652202 10.91759938 11.68388827 9.15234375 14.09765625 C8.66097209 17.17868908 8.66097209 17.17868908 8.67578125 20.69921875 C8.629375 22.64054687 8.629375 22.64054687 8.58203125 24.62109375 C8.56303358 25.98827079 8.54481385 27.35545884 8.52734375 28.72265625 C8.4793984 31.4025487 8.42211694 34.08202071 8.36328125 36.76171875 C8.34571777 37.9523291 8.3281543 39.14293945 8.31005859 40.36962891 C8.15234375 43.09765625 8.15234375 43.09765625 7.15234375 44.09765625 C5.65496251 44.19556195 4.15291483 44.22740489 2.65234375 44.22265625 C1.83765625 44.22523438 1.02296875 44.2278125 0.18359375 44.23046875 C-1.84765625 44.09765625 -1.84765625 44.09765625 -2.84765625 43.09765625 C-2.94882545 40.0068416 -2.98734183 36.9388307 -2.98046875 33.84765625 C-2.98142548 32.91920898 -2.9823822 31.99076172 -2.98336792 31.03417969 C-2.9840498 29.0670566 -2.98219497 27.09993129 -2.97802734 25.1328125 C-2.9726792 22.11062599 -2.97797207 19.0885881 -2.984375 16.06640625 C-2.98371422 14.16015592 -2.98243306 12.25390568 -2.98046875 10.34765625 C-2.98249298 9.43725586 -2.98451721 8.52685547 -2.98660278 7.58886719 C-2.95863085 0.15637584 -2.95863085 0.15637584 0 0 Z " fill="#278E4B" transform="translate(234.84765625,372.90234375)"/>
<path d="M0 0 C2.97 0 5.94 0 9 0 C9 14.52 9 29.04 9 44 C6.03 44 3.06 44 0 44 C-1.94863925 42.05136075 -1.1291874 39.1019128 -1.13894653 36.50878906 C-1.1369223 35.59838867 -1.13489807 34.68798828 -1.1328125 33.75 C-1.13376923 32.82155273 -1.13472595 31.89310547 -1.13571167 30.93652344 C-1.13639355 28.96940035 -1.13453872 27.00227504 -1.13037109 25.03515625 C-1.12502295 22.01296974 -1.13031582 18.99093185 -1.13671875 15.96875 C-1.13605797 14.06249967 -1.13477681 12.15624943 -1.1328125 10.25 C-1.13483673 9.33959961 -1.13686096 8.42919922 -1.13894653 7.49121094 C-1.11494969 1.11494969 -1.11494969 1.11494969 0 0 Z " fill="#2A9150" transform="translate(265,373)"/>
<path d="M0 0 C-0.33 0.66 -0.66 1.32 -1 2 C-3.31 2 -5.62 2 -8 2 C-8 22.13 -8 42.26 -8 63 C-4.7 63 -1.4 63 2 63 C2 48.81 2 34.62 2 20 C6 25 6 25 7 27 C6.34 27 5.68 27 5 27 C4.98541748 28.04454346 4.97083496 29.08908691 4.95581055 30.1652832 C4.89784449 34.04014345 4.82061226 37.91442151 4.73754883 41.78881836 C4.70429137 43.46580559 4.67626192 45.14290497 4.65356445 46.82006836 C4.62003263 49.23079225 4.56772022 51.64048762 4.51171875 54.05078125 C4.50213387 55.17592888 4.50213387 55.17592888 4.49235535 56.32380676 C4.34561147 61.51695729 4.34561147 61.51695729 2.58911133 63.97192383 C0.60351065 65.25650893 -0.64457381 65.40176621 -3 65.375 C-4.0209375 65.38660156 -4.0209375 65.38660156 -5.0625 65.3984375 C-7.65134924 64.86605318 -8.40410434 64.10442295 -10 62 C-10.36076355 59.32344055 -10.36076355 59.32344055 -10.34057617 56.05981445 C-10.34034958 54.83877518 -10.34012299 53.6177359 -10.33988953 52.35969543 C-10.32440567 51.04087875 -10.30892181 49.72206207 -10.29296875 48.36328125 C-10.28737243 46.99993862 -10.2831025 45.63658996 -10.28010559 44.27323914 C-10.26865949 40.68756408 -10.23919486 37.10225446 -10.20599365 33.51672363 C-10.17528739 29.8569025 -10.1615991 26.19702223 -10.14648438 22.53710938 C-10.11432449 15.35790644 -10.06313153 8.17900446 -10 1 C-6.52674819 -0.1577506 -3.63932552 -0.06866652 0 0 Z " fill="#F8F9F8" transform="translate(99,354)"/>
<path d="M0 0 C-1.54107422 0.92619141 -1.54107422 0.92619141 -3.11328125 1.87109375 C-15.39364552 9.33918408 -26.02906033 17.58590746 -36 28 C-36.99 27.01 -37.98 26.02 -39 25 C-38 23 -38 23 -37 21 C-36.73960937 20.36320312 -36.47921875 19.72640625 -36.2109375 19.0703125 C-33.7481636 14.85976357 -29.01221941 12.60313248 -25 10 C-24.19949219 9.46890625 -23.39898437 8.9378125 -22.57421875 8.390625 C-5.23738284 -2.61869142 -5.23738284 -2.61869142 0 0 Z " fill="#E9EFEA" transform="translate(273,164)"/>
<path d="M0 0 C2.97 0 5.94 0 9 0 C9 14.52 9 29.04 9 44 C6.03 44 3.06 44 0 44 C-1.94863925 42.05136075 -1.1291874 39.1019128 -1.13894653 36.50878906 C-1.1369223 35.59838867 -1.13489807 34.68798828 -1.1328125 33.75 C-1.13376923 32.82155273 -1.13472595 31.89310547 -1.13571167 30.93652344 C-1.13639355 28.96940035 -1.13453872 27.00227504 -1.13037109 25.03515625 C-1.12502295 22.01296974 -1.13031582 18.99093185 -1.13671875 15.96875 C-1.13605797 14.06249967 -1.13477681 12.15624943 -1.1328125 10.25 C-1.13483673 9.33959961 -1.13686096 8.42919922 -1.13894653 7.49121094 C-1.11494969 1.11494969 -1.11494969 1.11494969 0 0 Z M1 2 C1 15.53 1 29.06 1 43 C3.31 43 5.62 43 8 43 C8 29.47 8 15.94 8 2 C5.69 2 3.38 2 1 2 Z " fill="#077829" transform="translate(265,373)"/>
<path d="M0 0 C2.375 1.625 2.375 1.625 4 4 C3.9375 7.125 3.9375 7.125 3 10 C-0.46923881 12.31282587 -1.92205575 12.42478586 -6 12 C-7.875 10.875 -7.875 10.875 -9 9 C-9.4375 6 -9.4375 6 -9 3 C-6.31164707 0.01294119 -3.93697301 -0.68897028 0 0 Z " fill="#228B43" transform="translate(272,355)"/>
<path d="M0 0 C0 0.33 0 0.66 0 1 C-0.99580078 1.23783203 -0.99580078 1.23783203 -2.01171875 1.48046875 C-7.77234088 3.00261854 -11.22400736 4.34294241 -15 9 C-15.33 7.02 -15.66 5.04 -16 3 C-18.64 3 -21.28 3 -24 3 C-24.33 15.21 -24.66 27.42 -25 40 C-25.33 40 -25.66 40 -26 40 C-26.02464849 34.60653012 -26.04283531 29.21309275 -26.05493164 23.81958008 C-26.05997231 21.98331125 -26.06680477 20.14704646 -26.07543945 18.31079102 C-26.08751672 15.67723599 -26.09323081 13.04373384 -26.09765625 10.41015625 C-26.10281754 9.58411392 -26.10797882 8.75807159 -26.11329651 7.90699768 C-26.11349205 5.93763632 -26.06204152 3.96838386 -26 2 C-24.34346314 0.34346314 -22.39349204 0.82893835 -20.125 0.8125 C-19.24070313 0.79832031 -18.35640625 0.78414063 -17.4453125 0.76953125 C-15 1 -15 1 -12 3 C-10.700625 2.2575 -10.700625 2.2575 -9.375 1.5 C-5.89250377 -0.0477761 -3.75240542 -0.26802896 0 0 Z " fill="#FAFBFB" transform="translate(257,371)"/>
<path d="M0 0 C0.721875 0.00257813 1.44375 0.00515625 2.1875 0.0078125 C2.909375 0.00523437 3.63125 0.00265625 4.375 0 C6.1875 0.1328125 6.1875 0.1328125 7.1875 1.1328125 C7.22830783 3.13239614 7.23004356 5.13326504 7.1875 7.1328125 C6.8575 7.1328125 6.5275 7.1328125 6.1875 7.1328125 C6.1875 5.4828125 6.1875 3.8328125 6.1875 2.1328125 C3.8775 2.4628125 1.5675 2.7928125 -0.8125 3.1328125 C-1.1425 15.6728125 -1.4725 28.2128125 -1.8125 41.1328125 C-2.1425 41.1328125 -2.4725 41.1328125 -2.8125 41.1328125 C-2.83714705 35.45451172 -2.85533462 29.77624181 -2.86743164 24.09790039 C-2.87247256 22.16462665 -2.87930519 20.23135674 -2.88793945 18.2980957 C-2.90001565 15.52554378 -2.90573057 12.75304209 -2.91015625 9.98046875 C-2.91531754 9.11067886 -2.92047882 8.24088898 -2.92579651 7.34474182 C-2.92599185 5.27375436 -2.87458168 3.20286926 -2.8125 1.1328125 C-1.8125 0.1328125 -1.8125 0.1328125 0 0 Z " fill="#19863F" transform="translate(234.8125,372.8671875)"/>
<path d="M0 0 C0 3.96 0 7.92 0 12 C3.63 12 7.26 12 11 12 C11 12.33 11 12.66 11 13 C5.06 13.495 5.06 13.495 -1 14 C-3.35333796 9.29332409 -3.17102038 7.1306114 -3 2 C-4.65 2 -6.3 2 -8 2 C-8 5.3 -8 8.6 -8 12 C-8.33 12 -8.66 12 -9 12 C-9 8.37 -9 4.74 -9 1 C-1.125 0 -1.125 0 0 0 Z " fill="#2F9352" transform="translate(298,361)"/>
<path d="M0 0 C0.33 0.66 0.66 1.32 1 2 C1.99 1.67 2.98 1.34 4 1 C4.66 1.66 5.32 2.32 6 3 C3.03 5.97 0.06 8.94 -3 12 C-3.99 11.01 -4.98 10.02 -6 9 C-5.33333333 7.66666667 -4.66666667 6.33333333 -4 5 C-3.67 4.278125 -3.34 3.55625 -3 2.8125 C-2 1 -2 1 0 0 Z " fill="#E6EDE7" transform="translate(240,180)"/>
<path d="M0 0 C3.3 0 6.6 0 10 0 C10 1.65 10 3.3 10 5 C6.7 5 3.4 5 0 5 C0 3.33333333 0 1.66666667 0 0 Z " fill="#2E9452" transform="translate(298,375)"/>
<path d="M0 0 C0.33 0 0.66 0 1 0 C1.09765625 6.15234375 1.09765625 6.15234375 1 8 C-0.86585954 9.86585954 -3.81236371 9.25966063 -6.3125 9.3125 C-8.03919922 9.36857422 -8.03919922 9.36857422 -9.80078125 9.42578125 C-13.56953943 8.92420049 -14.66982219 7.91703741 -17 5 C-16.319375 5.33 -15.63875 5.66 -14.9375 6 C-11.49159762 7.17307315 -8.61602578 7.14180493 -5 7 C-5 6.01 -5 5.02 -5 4 C-3.68 4 -2.36 4 -1 4 C-0.67 2.68 -0.34 1.36 0 0 Z " fill="#107B32" transform="translate(223,408)"/>
<path d="M0 0 C0.77472656 0.00451172 1.54945313 0.00902344 2.34765625 0.01367188 C4.23180524 0.02530242 6.11591365 0.04323094 8 0.0625 C7.67 1.0525 7.34 2.0425 7 3.0625 C-1.07861415 3.15829384 -8.98340366 3.18763633 -17 2.0625 C-17 1.7325 -17 1.4025 -17 1.0625 C-11.28094617 0.23713655 -5.7732851 -0.06503701 0 0 Z " fill="#DAE7DC" transform="translate(249,107.9375)"/>
<path d="M0 0 C1.23556641 0.01740234 1.23556641 0.01740234 2.49609375 0.03515625 C3.32238281 0.04417969 4.14867187 0.05320312 5 0.0625 C5.63808594 0.07410156 6.27617187 0.08570313 6.93359375 0.09765625 C6.60359375 0.75765625 6.27359375 1.41765625 5.93359375 2.09765625 C3.62359375 2.09765625 1.31359375 2.09765625 -1.06640625 2.09765625 C-1.39640625 9.68765625 -1.72640625 17.27765625 -2.06640625 25.09765625 C-2.39640625 25.09765625 -2.72640625 25.09765625 -3.06640625 25.09765625 C-3.09527609 21.11850466 -3.11316031 17.13937972 -3.12890625 13.16015625 C-3.13728516 12.02384766 -3.14566406 10.88753906 -3.15429688 9.71679688 C-3.15751953 8.63720703 -3.16074219 7.55761719 -3.1640625 6.4453125 C-3.16929932 5.44508057 -3.17453613 4.44484863 -3.17993164 3.41430664 C-3.0347614 0.45189723 -2.95960573 0.13986795 0 0 Z " fill="#1B8641" transform="translate(267.06640625,372.90234375)"/>
<path d="M0 0 C0.66 0.33 1.32 0.66 2 1 C-0.07437458 2.36992656 -2.15761462 3.72059546 -4.25 5.0625 C-5.12978516 5.64741211 -5.12978516 5.64741211 -6.02734375 6.24414062 C-10.45794859 9.05682797 -10.45794859 9.05682797 -13.421875 8.74609375 C-13.94265625 8.49988281 -14.4634375 8.25367188 -15 8 C-15 7.34 -15 6.68 -15 6 C-12.54524486 4.96971956 -10.08685649 3.95054496 -7.625 2.9375 C-6.57699219 2.49567383 -6.57699219 2.49567383 -5.5078125 2.04492188 C-3.69495092 1.30408902 -1.84876857 0.64603036 0 0 Z " fill="#ECF3EC" transform="translate(271,163)"/>
<path d="M0 0 C0.99 0.33 1.98 0.66 3 1 C3 1.33 3 1.66 3 2 C3.66 2.33 4.32 2.66 5 3 C3.875 4.5 3.875 4.5 2 6 C-1.1875 6.1875 -1.1875 6.1875 -4 6 C-3.6875 4.125 -3.6875 4.125 -3 2 C-2.01 1.34 -1.02 0.68 0 0 Z " fill="#F5F6F5" transform="translate(245,176)"/>
<path d="M0 0 C0.66 0.33 1.32 0.66 2 1 C-5.11389522 9.6309795 -5.11389522 9.6309795 -10 12 C-8.52278578 8.54798361 -6.56205999 6.35038064 -3.875 3.75 C-3.15054688 3.04359375 -2.42609375 2.3371875 -1.6796875 1.609375 C-1.12539062 1.07828125 -0.57109375 0.5471875 0 0 Z " fill="#1F8C31" transform="translate(221,160)"/>
<path d="M0 0 C0.99 0.33 1.98 0.66 3 1 C1.9024777 3.99324263 1.32317108 4.84610901 -1.625 6.25 C-2.40875 6.4975 -3.1925 6.745 -4 7 C-4 5 -4 5 -2 3 C-2 2.34 -2 1.68 -2 1 C-1.34 0.67 -0.68 0.34 0 0 Z " fill="#F5F7F6" transform="translate(255,170)"/>
<path d="M0 0 C0.33 0.66 0.66 1.32 1 2 C1.66 2 2.32 2 3 2 C2.67 3.65 2.34 5.3 2 7 C0 6 0 6 -1 4 C-1.66 4 -2.32 4 -3 4 C-2.67 3.01 -2.34 2.02 -2 1 C-1.34 0.67 -0.68 0.34 0 0 Z " fill="#1B853E" transform="translate(176,406)"/>
<path d="M0 0 C-2.97 1.65 -5.94 3.3 -9 5 C-9.33 4.01 -9.66 3.02 -10 2 C-8.71211992 1.46987262 -7.41953322 0.9511671 -6.125 0.4375 C-5.40570313 0.14746094 -4.68640625 -0.14257812 -3.9453125 -0.44140625 C-2 -1 -2 -1 0 0 Z " fill="#DAEADB" transform="translate(273,164)"/>
<path d="M0 0 C1.98 0 3.96 0 6 0 C6 0.99 6 1.98 6 3 C3.69 3 1.38 3 -1 3 C-0.67 2.01 -0.34 1.02 0 0 Z " fill="#E8EEEA" transform="translate(166,406)"/>
</svg>
